<svg width="197" height="32" viewBox="0 0 197 32" fill="none" xmlns="http://www.w3.org/2000/svg">
<g clip-path="url(#clip0_3027_1904)">
<path d="M51.745 18.5262C52.3022 18.5126 52.8504 18.668 53.317 18.9718C53.7613 19.2714 54.104 19.6982 54.3 20.1959H57.1891C56.9111 18.914 56.3014 17.8975 55.36 17.1465C54.4187 16.3955 53.2297 16.0193 51.793 16.018C50.697 16.018 49.734 16.2592 48.904 16.7417C48.0797 17.2174 47.4117 17.9215 46.981 18.7684C46.527 19.6344 46.3 20.6243 46.3 21.7381C46.3 22.852 46.526 23.8429 46.978 24.7108C47.409 25.5572 48.0765 26.2611 48.9 26.7375C49.73 27.22 50.6931 27.4609 51.7891 27.4602C53.2251 27.4602 54.414 27.0814 55.356 26.3238C56.298 25.5662 56.9071 24.5513 57.1831 23.2793H54.3C54.1016 23.7708 53.7599 24.1917 53.319 24.4875C52.8526 24.7917 52.3043 24.9472 51.747 24.9331C50.947 24.9331 50.3034 24.6444 49.816 24.0668C49.3287 23.4893 49.084 22.7131 49.082 21.7381C49.082 20.7632 49.3267 19.9839 49.816 19.4004C50.3054 18.8169 50.9484 18.5255 51.745 18.5262Z" fill="#E6EEFF"/>
<path d="M66.9771 16.6909C66.0921 16.2056 65.0985 15.9512 64.0886 15.9512C63.0786 15.9512 62.085 16.2056 61.2 16.6909C60.3405 17.1761 59.6292 17.8848 59.142 18.7415C58.6447 19.6524 58.3841 20.6731 58.3841 21.7102C58.3841 22.7474 58.6447 23.768 59.142 24.6789C59.6278 25.5387 60.3392 26.2504 61.2 26.7375C62.0825 27.2221 63.0736 27.4762 64.081 27.4762C65.0885 27.4762 66.0796 27.2221 66.962 26.7375C67.8227 26.2501 68.5341 25.5385 69.0201 24.6789C69.5161 23.7678 69.7766 22.7479 69.778 21.7112C69.7794 20.6746 69.5217 19.6539 69.0281 18.7415C68.5451 17.884 67.8358 17.1748 66.9771 16.6909ZM66.2 24.0589C65.6667 24.6424 64.9591 24.9338 64.0771 24.9331C63.1831 24.9331 62.4727 24.6417 61.9461 24.0589C61.4194 23.476 61.156 22.6918 61.156 21.7062C61.156 20.7093 61.4194 19.9225 61.9461 19.3456C62.4727 18.7687 63.1831 18.48 64.0771 18.4793C64.9711 18.4793 65.681 18.7707 66.2071 19.3536C66.733 19.9364 66.9964 20.7206 66.997 21.7062C66.999 22.6911 66.7334 23.4754 66.2 24.0589Z" fill="#E6EEFF"/>
<path d="M78.7151 16.8255C77.8324 16.3603 76.7844 16.1277 75.5711 16.1277H71.31V27.3655H75.5711C76.7711 27.3655 77.8164 27.127 78.7071 26.6498C79.5691 26.1988 80.2794 25.5056 80.75 24.656C81.2234 23.8027 81.46 22.8251 81.46 21.7232C81.46 20.6213 81.2234 19.646 80.75 18.7973C80.2817 17.9543 79.5736 17.2683 78.7151 16.8255ZM77.8151 24.0908C77.2251 24.6517 76.3981 24.9325 75.3341 24.9331H74.0391V18.5102H75.3321C76.3987 18.5102 77.2257 18.7913 77.813 19.3536C78.4004 19.9158 78.696 20.7054 78.7001 21.7222C78.7001 22.739 78.4044 23.5285 77.813 24.0908H77.8151Z" fill="#E6EEFF"/>
<path d="M85.737 16.1267H83.0081V27.3655H85.737V16.1267Z" fill="#E6EEFF"/>
<path d="M94.9131 23.0889L90.349 16.1267H87.6201V27.3655H90.349V20.4661L94.9131 27.3655H97.642V16.1267H94.9131V23.0889Z" fill="#E6EEFF"/>
<path d="M104.424 23.0092H107.871C107.671 23.6671 107.325 24.1732 106.834 24.5274C106.338 24.8846 105.738 25.0714 105.126 25.0597C104.115 25.0597 103.336 24.7736 102.788 24.2014C102.24 23.6292 101.966 22.8081 101.966 21.7381C101.966 20.7519 102.227 19.97 102.748 19.3925C103.269 18.8149 103.961 18.5262 104.823 18.5262C105.321 18.5119 105.812 18.6358 106.243 18.884C106.626 19.1099 106.932 19.445 107.121 19.846H110.01C109.786 18.6697 109.217 17.737 108.302 17.0478C107.387 16.3586 106.221 16.0143 104.802 16.015C103.674 16.015 102.687 16.2563 101.842 16.7387C101.005 17.2112 100.323 17.9151 99.879 18.7654C99.4157 19.6334 99.1844 20.6243 99.185 21.7381C99.1857 22.852 99.417 23.8429 99.879 24.7108C100.325 25.5625 101.01 26.2666 101.85 26.7375C102.701 27.22 103.696 27.4609 104.834 27.4602C105.696 27.4766 106.551 27.2973 107.334 26.9359C108.026 26.6156 108.64 26.1493 109.134 25.5692C109.589 25.0306 109.935 24.4099 110.155 23.7409V21.0493H104.426L104.424 23.0092Z" fill="#E6EEFF"/>
<path d="M118.069 23.9791L115.021 16.2054H111.685V27.3655H114.414V20.3704L116.856 27.3655H119.218L121.643 20.3863V27.3655H124.372V16.2054H121.053L118.069 23.9791Z" fill="#E6EEFF"/>
<path d="M134.514 16.6909C133.629 16.2056 132.636 15.9512 131.626 15.9512C130.616 15.9512 129.622 16.2056 128.737 16.6909C127.877 17.1761 127.166 17.8848 126.679 18.7415C126.182 19.6524 125.921 20.6731 125.921 21.7102C125.921 22.7474 126.182 23.768 126.679 24.6789C127.165 25.5387 127.876 26.2504 128.737 26.7375C129.619 27.2221 130.61 27.4762 131.618 27.4762C132.625 27.4762 133.616 27.2221 134.498 26.7375C135.359 26.2505 136.071 25.5388 136.557 24.6789C137.053 23.7678 137.314 22.7479 137.315 21.7112C137.316 20.6746 137.059 19.6539 136.565 18.7415C136.082 17.884 135.373 17.1748 134.514 16.6909ZM133.74 24.0589C133.207 24.6424 132.499 24.9338 131.618 24.9331C130.724 24.9331 130.014 24.6417 129.487 24.0589C128.96 23.476 128.697 22.6918 128.697 21.7062C128.697 20.7093 128.96 19.9225 129.487 19.3456C130.014 18.7687 130.724 18.48 131.618 18.4793C132.511 18.4793 133.221 18.7707 133.748 19.3536C134.275 19.9364 134.539 20.7206 134.538 21.7062C134.538 22.6911 134.272 23.4754 133.74 24.0589Z" fill="#E6EEFF"/>
<path d="M145.422 22.6124C145.422 23.3541 145.255 23.921 144.922 24.3131C144.589 24.7052 144.102 24.9012 143.462 24.9012C142.824 24.9012 142.337 24.7052 142.002 24.3131C141.667 23.921 141.5 23.3541 141.502 22.6124V16.1267H138.789V22.6124C138.789 23.6717 138.986 24.5673 139.38 25.299C139.739 25.9969 140.305 26.5682 141 26.9359C141.692 27.2968 142.49 27.4769 143.394 27.4762C144.238 27.4903 145.072 27.3023 145.828 26.9279C146.546 26.5629 147.138 25.9926 147.528 25.29C147.943 24.565 148.151 23.6724 148.15 22.6124V16.1267H145.421L145.422 22.6124Z" fill="#E6EEFF"/>
<path d="M157.263 23.0889L152.699 16.1267H149.97V27.3655H152.699V20.4661L157.263 27.3655H159.992V16.1267H157.263V23.0889Z" fill="#E6EEFF"/>
<path d="M161.141 18.2879H164.173V27.3655H166.918V18.2879H169.982V16.1267H161.141V18.2879Z" fill="#E6EEFF"/>
<path d="M174.243 16.2054L170.11 27.3705H172.982L173.682 25.3199H177.911L178.611 27.3705H181.511L177.378 16.2104L174.243 16.2054ZM174.387 23.2474L175.807 19.1143L177.207 23.2474H174.387Z" fill="#E6EEFF"/>
<path d="M185.095 16.1267H182.366V27.3655H185.095V16.1267Z" fill="#E6EEFF"/>
<path d="M194.271 16.1267V23.0889L189.707 16.1267H186.978V27.3655H189.707V20.4661L194.271 27.3655H197V16.1267H194.271Z" fill="#E6EEFF"/>
<path d="M8.014 9.52515L0 21.4878L7.041 31.9999H15.436L8.395 21.4878L16.409 9.52515H8.014Z" fill="#125BFA"/>
<path d="M31.4179 4.56765L31.4049 4.58659L28.4489 0.0996094L7.07788 31.9999H15.4729L28.4529 12.6265L29.2909 13.8885L17.1599 31.9999H25.5549L33.4719 20.1809L34.3119 21.4449L27.2409 31.9999H27.2989H35.6369H35.6949L42.7359 21.4878L31.4179 4.56765Z" fill="#E6EEFF"/>
</g>
<defs>
<clipPath id="clip0_3027_1904">
<rect width="197" height="32" fill="white"/>
</clipPath>
</defs>
</svg>
