<svg width="148" height="42" viewBox="0 0 148 42" fill="none" xmlns="http://www.w3.org/2000/svg">
<path fill-rule="evenodd" clip-rule="evenodd" d="M22.6763 0.0656236L39.8332 0.0624998C40.948 0.0624362 41.9937 0.601578 42.6407 1.5125C43.2874 2.42351 43.4561 3.59184 43.0934 4.65076L30.4018 39.4623C29.9087 40.9014 28.572 41.8782 27.0573 41.906C25.5428 41.934 24.1744 41.0058 23.6337 39.5862L23.3988 38.971C23.3988 38.971 17.5902 20.3468 21.8663 2.93424L22.6763 0.0656236ZM13.5103 17.1246C9.90709 15.0064 -1.85648 7.92872 0.250746 2.34366C0.767591 0.975009 2.07364 0.0694419 3.53115 0.0689368L18.1281 0.0669353C18.1281 0.0669353 15.2016 4.7084 13.5103 17.1246Z" fill="url(#paint0_linear_5_1224)"/>
<path d="M57.3124 10.8766L59.2851 4.97174H63.2579L59.2214 14.9721V21.1997H55.3576V15.104L51.3076 4.97174H55.3259L57.3124 10.8766Z" fill="#F5F0E1"/>
<path d="M74.9447 13.0629C74.9447 14.4266 74.8128 15.6266 74.5492 16.663C74.2855 17.7039 73.8947 18.5766 73.3719 19.2812C72.8492 19.9903 72.2083 20.5221 71.4401 20.8812C70.6764 21.2403 69.7901 21.4221 68.7855 21.4221C67.7854 21.4221 66.8991 21.2405 66.1309 20.8768C65.3627 20.5132 64.7127 19.9812 64.1899 19.2721C63.6626 18.5675 63.2672 17.6902 63.0036 16.6492C62.7354 15.6037 62.6034 14.4037 62.6034 13.04C62.6034 11.2354 62.8354 9.71729 63.3081 8.48088C63.7763 7.24447 64.4717 6.30799 65.3945 5.67161C66.3127 5.03522 67.4445 4.71698 68.7855 4.71698C70.131 4.71698 71.2584 5.03066 72.1721 5.66251C73.0857 6.2898 73.7765 7.22172 74.2447 8.46268C74.7083 9.70364 74.9447 11.2356 74.9447 13.0629ZM66.6172 13.0629C66.6172 14.1675 66.6991 15.0855 66.8627 15.8265C67.0263 16.5674 67.2673 17.1176 67.59 17.4858C67.9128 17.854 68.3082 18.0358 68.7855 18.0358C69.2719 18.0358 69.6718 17.8585 69.99 17.504C70.3037 17.1449 70.5356 16.6039 70.6856 15.8675C70.8402 15.1311 70.9129 14.1948 70.9129 13.0629C70.9129 11.3447 70.7401 10.0808 70.3856 9.2626C70.0355 8.44439 69.4991 8.03542 68.7855 8.03542C68.3082 8.03542 67.9128 8.22178 67.59 8.59452C67.2673 8.97181 67.0263 9.52635 66.8627 10.2718C66.6991 11.0173 66.6172 11.9447 66.6172 13.0629Z" fill="#F5F0E1"/>
<path d="M86.9272 4.97174V15.6948C86.9272 16.9448 86.7137 17.995 86.2955 18.845C85.8728 19.695 85.2545 20.3361 84.4409 20.7724C83.6272 21.2043 82.6268 21.4223 81.4449 21.4223C79.7221 21.4223 78.3951 20.9541 77.4724 20.0222C76.5451 19.0904 76.0861 17.6813 76.0861 15.7949V4.97174H79.945V15.604C79.945 16.495 80.0769 17.1178 80.336 17.486C80.5951 17.8542 80.977 18.036 81.4906 18.036C81.8498 18.036 82.1498 17.9586 82.3771 17.804C82.6044 17.6449 82.7772 17.3905 82.8863 17.0314C82.9999 16.6723 83.0541 16.1903 83.0541 15.5812V4.97174H86.9272Z" fill="#F5F0E1"/>
<path d="M99.105 21.1986V10.4438C99.105 9.19377 98.8961 8.14365 98.4733 7.29362C98.0506 6.44359 97.4322 5.80255 96.6231 5.36617C95.8049 4.93433 94.8091 4.71628 93.6227 4.71628C91.8999 4.71628 90.5775 5.18452 89.6502 6.11637C88.7274 7.04822 88.2634 8.45728 88.2634 10.3437V21.1986H92.1272V10.5346C92.1272 9.64365 92.2548 9.02084 92.5139 8.65264C92.773 8.28445 93.1593 8.10264 93.6685 8.10264C94.0321 8.10264 94.3277 8.18003 94.5549 8.33458C94.7868 8.49368 94.9549 8.7481 95.0685 9.10721C95.1776 9.46631 95.2319 9.94834 95.2319 10.5575V21.1986H99.105Z" fill="#F5F0E1"/>
<path d="M106.051 11.6993H111.711V20.445C110.879 20.7768 110.024 21.0223 109.156 21.1814C108.288 21.3405 107.397 21.4222 106.488 21.4222C105.156 21.4222 104.024 21.095 103.097 20.445C102.165 19.7904 101.46 18.8405 100.97 17.5904C100.483 16.3404 100.238 14.8266 100.238 13.0401C100.238 11.3037 100.515 9.81726 101.069 8.58085C101.624 7.34444 102.424 6.39451 103.47 5.73539C104.511 5.07173 105.77 4.73993 107.242 4.73993C108.074 4.73993 108.856 4.83523 109.579 5.03069C110.297 5.22161 110.929 5.46723 111.47 5.76269L110.392 8.92177C109.947 8.64449 109.474 8.42645 108.965 8.28099C108.461 8.13098 107.929 8.05815 107.374 8.05815C106.688 8.05815 106.111 8.25818 105.647 8.65365C105.188 9.04912 104.838 9.62188 104.606 10.3765C104.374 11.131 104.256 12.0583 104.256 13.1538C104.256 14.2174 104.347 15.1176 104.533 15.8494C104.72 16.5813 104.993 17.1357 105.361 17.513C105.724 17.8902 106.179 18.0812 106.72 18.0812C106.92 18.0812 107.12 18.063 107.324 18.0312C107.529 17.9949 107.724 17.9539 107.92 17.8994V14.9265H106.051V11.6993Z" fill="#F5F0E1"/>
<path d="M53.0389 24.3905H51.3076V40.3089H53.0389V24.3905Z" fill="#F5F0E1"/>
<path d="M64.0091 40.3149V29.3616C64.0091 28.1485 63.844 27.1584 63.5184 26.3958C63.1929 25.6287 62.7157 25.0668 62.0869 24.7055C61.458 24.3487 60.6819 24.1659 59.7587 24.1659C58.3583 24.1659 57.2925 24.5895 56.5611 25.4324C55.8252 26.2709 55.4596 27.5821 55.4596 29.3526V40.3149H57.19V29.3393C57.19 28.0638 57.413 27.145 57.8589 26.5831C58.3094 26.0256 58.9426 25.7447 59.7587 25.7447C60.3073 25.7447 60.7622 25.8651 61.1324 26.106C61.5026 26.3468 61.7835 26.7303 61.9708 27.261C62.1581 27.7917 62.2519 28.4919 62.2519 29.3616L62.2563 40.3149H64.0091Z" fill="#F5F0E1"/>
<path d="M74.882 40.3149L74.8689 29.3616C74.8689 28.1485 74.7036 27.1584 74.3781 26.3958C74.0525 25.6287 73.5753 25.0668 72.9465 24.7055C72.3176 24.3487 71.5416 24.1659 70.6229 24.1659C69.2225 24.1659 68.1523 24.5895 67.4209 25.4324C66.6895 26.2709 66.3192 27.5821 66.3192 29.3526L66.3327 40.3149H68.0631L68.0542 29.3393C68.0542 28.0638 68.2771 27.145 68.7231 26.5831C69.1691 26.0256 69.8023 25.7447 70.6229 25.7447C71.167 25.7447 71.6221 25.8651 71.9922 26.106C72.3624 26.3468 72.6433 26.7303 72.8306 27.261C73.0224 27.7917 73.1159 28.4919 73.1159 29.3616L73.1294 40.3149H74.882Z" fill="#F5F0E1"/>
<path d="M86.741 32.3293C86.741 33.471 86.6517 34.5324 86.4688 35.5269C86.2904 36.517 86.0049 37.3866 85.6169 38.1403C85.2289 38.8896 84.7162 39.4738 84.0874 39.8975C83.4541 40.3167 82.6868 40.5307 81.7904 40.5307C80.8716 40.5307 80.0959 40.3122 79.4581 39.8796C78.8203 39.447 78.3074 38.854 77.9194 38.1003C77.5269 37.3465 77.2459 36.4723 77.0675 35.4777C76.8891 34.4832 76.8 33.4262 76.8 32.3068C76.8 30.4917 76.9873 28.9843 77.3619 27.7801C77.7365 26.5715 78.294 25.6706 79.0343 25.0685C79.7747 24.4664 80.6932 24.1633 81.7904 24.1633C82.9767 24.1633 83.9357 24.5244 84.6627 25.2469C85.3896 25.9694 85.9158 26.9461 86.2458 28.1815C86.5759 29.4169 86.741 30.7995 86.741 32.3293ZM78.597 32.3293C78.597 33.7742 78.7176 34.9873 78.9629 35.9729C79.2082 36.9541 79.5651 37.6988 80.0334 38.1983C80.5062 38.6978 81.0858 38.9519 81.7682 38.9519C82.4639 38.9519 83.0438 38.7067 83.5077 38.2161C83.9715 37.7255 84.3235 36.9897 84.5599 36.004C84.7963 35.0229 84.9122 33.7965 84.9122 32.3293C84.9122 30.1439 84.6537 28.5027 84.1274 27.3967C83.6056 26.2951 82.825 25.7421 81.7904 25.7421C81.0768 25.7421 80.4835 25.9918 80.0108 26.4868C79.5425 26.9863 79.1861 27.7222 78.9542 28.6989C78.7178 29.6756 78.597 30.8843 78.597 32.3293Z" fill="#F5F0E1"/>
<path d="M96.7979 24.3905L92.9534 40.3122H90.9509L87.1513 24.3905H88.9575L91.4282 35.3885C91.504 35.6963 91.5709 36.0174 91.6334 36.3519C91.6913 36.6909 91.7492 37.0296 91.8071 37.3641C91.8606 37.703 91.9097 38.0288 91.9543 38.341C91.9945 38.0288 92.0436 37.7031 92.1016 37.373C92.1551 37.0385 92.2176 36.6997 92.2845 36.3563C92.3514 36.0173 92.4225 35.6827 92.4983 35.3572L94.9917 24.3905H96.7979Z" fill="#F5F0E1"/>
<path d="M105.813 40.3168L101.969 24.3951H99.9663L96.1667 40.3168H97.9729L100.444 29.3187C100.519 29.011 100.586 28.6898 100.649 28.3554C100.707 28.0164 100.765 27.6777 100.823 27.3432C100.876 27.0042 100.925 26.6785 100.97 26.3663C101.01 26.6785 101.059 27.0042 101.117 27.3342C101.171 27.6687 101.233 28.0076 101.3 28.351C101.367 28.6899 101.438 29.0245 101.514 29.3501L104.007 40.3168H105.813Z" fill="#F5F0E1"/>
<path d="M110.321 40.3122H108.59V25.9604H105.486V24.3905H113.438V25.9604H110.321V40.3122Z" fill="#F5F0E1"/>
<path d="M116.346 24.3905H114.615V40.3089H116.346V24.3905Z" fill="#F5F0E1"/>
<path d="M128.329 32.3293C128.329 33.471 128.24 34.5324 128.057 35.5269C127.878 36.517 127.593 37.3866 127.205 38.1403C126.817 38.8896 126.304 39.4738 125.675 39.8975C125.042 40.3167 124.275 40.5307 123.378 40.5307C122.46 40.5307 121.684 40.3122 121.046 39.8796C120.408 39.447 119.895 38.854 119.507 38.1003C119.119 37.3465 118.834 36.4723 118.655 35.4777C118.477 34.4832 118.388 33.4262 118.388 32.3068C118.388 30.4917 118.575 28.9843 118.95 27.7801C119.324 26.5715 119.882 25.6706 120.622 25.0685C121.363 24.4664 122.281 24.1633 123.378 24.1633C124.565 24.1633 125.524 24.5244 126.251 25.2469C126.978 25.9694 127.504 26.9461 127.834 28.1815C128.164 29.4169 128.329 30.7995 128.329 32.3293ZM120.185 32.3293C120.185 33.7742 120.306 34.9873 120.551 35.9729C120.796 36.9541 121.153 37.6988 121.626 38.1983C122.094 38.6978 122.674 38.9519 123.356 38.9519C124.052 38.9519 124.632 38.7067 125.096 38.2161C125.564 37.7255 125.911 36.9897 126.148 36.004C126.384 35.0229 126.5 33.7965 126.5 32.3293C126.5 30.1439 126.242 28.5027 125.72 27.3967C125.193 26.2951 124.413 25.7421 123.378 25.7421C122.665 25.7421 122.072 25.9918 121.604 26.4868C121.131 26.9863 120.774 27.7222 120.542 28.6989C120.306 29.6756 120.185 30.8843 120.185 32.3293Z" fill="#F5F0E1"/>
<path d="M138.787 40.3149V29.3616C138.787 28.1485 138.627 27.1584 138.301 26.3958C137.971 25.6287 137.494 25.0668 136.87 24.7055C136.241 24.3487 135.465 24.1659 134.542 24.1659C133.141 24.1659 132.076 24.5895 131.34 25.4324C130.608 26.2709 130.243 27.5821 130.243 29.3526V40.3149H131.973V29.3393C131.973 28.0638 132.196 27.145 132.642 26.5831C133.088 26.0256 133.721 25.7447 134.542 25.7447C135.086 25.7447 135.545 25.8651 135.915 26.106C136.286 26.3468 136.566 26.7303 136.754 27.261C136.941 27.7917 137.035 28.4919 137.035 29.3616V40.3149H138.787Z" fill="#F5F0E1"/>
<path d="M147.899 35.9639C147.899 36.8648 147.725 37.6586 147.381 38.3454C147.034 39.0322 146.552 39.5675 145.932 39.951C145.312 40.3346 144.581 40.5307 143.738 40.5307C143.323 40.5307 142.926 40.5041 142.543 40.4595C142.155 40.4104 141.793 40.3346 141.445 40.2365C141.102 40.1339 140.772 40.0044 140.46 39.8528V38.0556C140.955 38.3321 141.49 38.5417 142.065 38.6888C142.645 38.8316 143.18 38.9075 143.671 38.9075C144.201 38.9075 144.647 38.7825 145.013 38.5327C145.374 38.2785 145.651 37.9441 145.847 37.5249C146.039 37.1012 146.133 36.6374 146.133 36.129C146.133 35.5938 146.052 35.1389 145.896 34.7732C145.736 34.4075 145.473 34.0775 145.111 33.7787C144.746 33.4799 144.255 33.1721 143.64 32.851C143.176 32.5968 142.752 32.3381 142.378 32.0705C141.999 31.7985 141.677 31.4952 141.41 31.1607C141.138 30.8217 140.933 30.4247 140.785 29.9654C140.643 29.5105 140.571 28.9663 140.571 28.333C140.553 27.499 140.718 26.7676 141.066 26.1388C141.41 25.51 141.887 25.0239 142.502 24.6761C143.113 24.3282 143.818 24.1543 144.608 24.1632C145.214 24.1632 145.785 24.239 146.334 24.3862C146.882 24.5334 147.355 24.7162 147.756 24.9258L147.19 26.5136C146.748 26.2772 146.311 26.0943 145.878 25.9783C145.446 25.8579 145.036 25.7954 144.643 25.7954C144.157 25.7954 143.742 25.9024 143.394 26.112C143.051 26.3216 142.783 26.6117 142.601 26.9774C142.413 27.3431 142.324 27.7711 142.324 28.2572C142.324 28.8147 142.404 29.2786 142.569 29.6398C142.73 30.0011 142.998 30.3266 143.363 30.6076C143.729 30.893 144.215 31.1964 144.817 31.522C145.504 31.8877 146.079 32.2756 146.534 32.6948C146.993 33.1141 147.337 33.5868 147.56 34.1175C147.783 34.6438 147.899 35.2637 147.899 35.9639Z" fill="#F5F0E1"/>
<path d="M81.8718 40.3182H81.654V40.5361H81.8718V40.3182Z" fill="#F5F0E1"/>
<defs>
<linearGradient id="paint0_linear_5_1224" x1="-1.99369" y1="14.6701" x2="40.0434" y2="22.1136" gradientUnits="userSpaceOnUse">
<stop stop-color="#F26322"/>
<stop offset="1" stop-color="#DB2E2A"/>
</linearGradient>
</defs>
</svg>
